<?xml version="1.0" encoding="UTF-8" standalone="no"?>
<!-- Creator: CorelDRAW X5 -->

<svg
   xmlns:dc="http://purl.org/dc/elements/1.1/"
   xmlns:cc="http://creativecommons.org/ns#"
   xmlns:rdf="http://www.w3.org/1999/02/22-rdf-syntax-ns#"
   xmlns:svg="http://www.w3.org/2000/svg"
   xmlns="http://www.w3.org/2000/svg"
   xmlns:xlink="http://www.w3.org/1999/xlink"
   xmlns:sodipodi="http://sodipodi.sourceforge.net/DTD/sodipodi-0.dtd"
   xmlns:inkscape="http://www.inkscape.org/namespaces/inkscape"
   xml:space="preserve"
   width="664.92041"
   height="607.70026"
   style="fill-rule:evenodd"
   viewBox="0 0 18765.532 17150.652"
   id="svg2"
   version="1.1"
   inkscape:version="0.48.2 r9819"
   sodipodi:docname="cheese.svg"><metadata
   id="metadata305"><rdf:RDF><cc:Work
       rdf:about=""><dc:format>image/svg+xml</dc:format><dc:type
         rdf:resource="http://purl.org/dc/dcmitype/StillImage" /></cc:Work></rdf:RDF></metadata><sodipodi:namedview
   pagecolor="#ffffff"
   bordercolor="#666666"
   borderopacity="1"
   objecttolerance="10"
   gridtolerance="10"
   guidetolerance="10"
   inkscape:pageopacity="0"
   inkscape:pageshadow="2"
   inkscape:window-width="1920"
   inkscape:window-height="1018"
   id="namedview303"
   showgrid="false"
   fit-margin-top="0"
   fit-margin-left="0"
   fit-margin-right="0"
   fit-margin-bottom="0"
   inkscape:zoom="1.314793"
   inkscape:cx="332.46018"
   inkscape:cy="303.85014"
   inkscape:window-x="-8"
   inkscape:window-y="-8"
   inkscape:window-maximized="1"
   inkscape:current-layer="svg2" />
 <defs
   id="defs4"><linearGradient
   id="linearGradient3595"><stop
     style="stop-color:#d3ad65;stop-opacity:1;"
     offset="0"
     id="stop3597" /><stop
     style="stop-color:#f9eab7;stop-opacity:1"
     offset="1"
     id="stop3599" /></linearGradient>
  <style
   type="text/css"
   id="style6">
   
    .str0 {stroke:#373435;stroke-width:2.54}
    .str2 {stroke:#F8F2E9;stroke-width:5.08}
    .str3 {stroke:#F8F1E0;stroke-width:27.94;stroke-linecap:round}
    .str1 {stroke:#B38F63;stroke-width:40.64;stroke-linecap:round}
    .fil3 {fill:none}
    .fil33 {fill:#A13937}
    .fil27 {fill:#B49860}
    .fil32 {fill:#B99A68}
    .fil25 {fill:#BD403E}
    .fil26 {fill:#BEA46C}
    .fil28 {fill:#C8A568}
    .fil1 {fill:#C9AD71}
    .fil4 {fill:#CEAB72}
    .fil15 {fill:#D3AD65}
    .fil14 {fill:#D7B46E}
    .fil21 {fill:#D9B570}
    .fil13 {fill:#DBB975}
    .fil20 {fill:#DDBC79}
    .fil2 {fill:#DEBE7B}
    .fil12 {fill:#DFBF7D}
    .fil23 {fill:#E2C281}
    .fil19 {fill:#E3C484}
    .fil11 {fill:#E3C485}
    .fil0 {fill:#E8CA88}
    .fil10 {fill:#E8CB8D}
    .fil18 {fill:#E8CB8F}
    .fil29 {fill:#E8CE8D}
    .fil22 {fill:#EACD92}
    .fil9 {fill:#EDD197}
    .fil30 {fill:#EDD28C}
    .fil17 {fill:#EED49C}
    .fil24 {fill:#EFDA9D}
    .fil8 {fill:#F1D9A2}
    .fil16 {fill:#F3DCA7}
    .fil7 {fill:#F5DFAA}
    .fil31 {fill:#F6E19B}
    .fil6 {fill:#F9E6B5}
    .fil5 {fill:#F9EAB7}
   
  </style>
 
  
  
 
   
   
   
   
   
   
   
   
   
   
   
   
   
   
   
   
   
   
   
   
   
   
   
   
   
   
   
   
   
   
   
   
   
   
   
   
   
   
   
   
   
   
   
   
   
   
   
   
   
   
   
   
   
   
   
   
   
   
   
   
   
   
   
   
   
   
   
   
   
   
   
   
   
   
   
   
   
   
   
   
   
   
   
   
   
   
   
   
   
   
   
   
   
   
   
   
   
   
   
   
   
   
   
   
   
   
   
   
   
   
   
   
   
   
   
   
   
   
   
   
   
   
   
   
   
   
   
   
  
    
    
    
    
   
    
    
    
    
    
    
   
    
    
    
    
    
    
    
    
   <radialGradient
   inkscape:collect="always"
   xlink:href="#linearGradient3595"
   id="radialGradient3190"
   gradientUnits="userSpaceOnUse"
   gradientTransform="matrix(2.1771854,0.00771576,-0.00651452,1.8382194,-8220.8337,-6044.6617)"
   cx="7022.9678"
   cy="7138.1362"
   fx="7022.9678"
   fy="7138.1362"
   r="375.03733" /><radialGradient
   inkscape:collect="always"
   xlink:href="#linearGradient3595"
   id="radialGradient3193"
   gradientUnits="userSpaceOnUse"
   gradientTransform="matrix(2.1437215,0.02579898,-0.02147685,1.784581,-7890.2052,-3305.3857)"
   cx="6973.2822"
   cy="3971.155"
   fx="6973.2822"
   fy="3971.155"
   r="618.56252" /><radialGradient
   inkscape:collect="always"
   xlink:href="#linearGradient3595"
   id="radialGradient3196"
   gradientUnits="userSpaceOnUse"
   gradientTransform="matrix(1.9328509,0.05456838,-0.05763793,2.0415771,-14248.378,-7971.4145)"
   cx="13238.809"
   cy="6660.3955"
   fx="13238.809"
   fy="6660.3955"
   r="797.9995" /></defs>
 <g
   id="g3311"><path
     style="fill:#e8ca88;stroke:#373435;stroke-width:2.53999996"
     inkscape:connector-curvature="0"
     id="path11"
     d="m 13970.767,3953.2841 c -385,256 -859,1038 96,1692 -410,320 -1993,-1262 -96,-1692 z"
     class="fil0 str0" /><path
     style="fill:#c9ad71;stroke:#373435;stroke-width:2.53999996"
     inkscape:connector-curvature="0"
     id="path13"
     d="m 1986.7672,11918.284 c 0,13 0,19 0,32 0,1781 3755,3223 8375.9998,3223 4633,0 8382,-1442 8382,-3223 l 6,-2082.9999 -16725.9998,-128 -38,2178.9999 z"
     class="fil1 str0" /><path
     style="fill:#debe7b;stroke:#373435;stroke-width:2.53999996"
     inkscape:connector-curvature="0"
     id="path15"
     d="m 18763.767,9945.2841 c 0,1780.9999 -3755,3222.9999 -8382,3222.9999 -4626.9998,0 -8375.9998,-1461 -8375.9998,-3242.9999 45,-1756 3781,-3198 8375.9998,-3198 4627,0 8382,1442 8382,3217 z"
     class="fil2 str0" /><path
     id="line17"
     d="m 16431.768,11579.284 -1103,-116"
     style="fill:none;stroke:#b38f63;stroke-width:40.63999939;stroke-linecap:round" /><path
     id="line19"
     d="m 15457.768,11560.284 -1103,-109"
     style="fill:none;stroke:#b38f63;stroke-width:40.63999939;stroke-linecap:round" /><path
     id="line21"
     d="m 15104.768,11419.284 -1102,-109"
     style="fill:none;stroke:#b38f63;stroke-width:40.63999939;stroke-linecap:round" /><path
     id="line23"
     d="m 14431.768,11239.284 -1096,-109"
     style="fill:none;stroke:#b38f63;stroke-width:40.63999939;stroke-linecap:round" /><path
     id="line25"
     d="m 13701.768,11278.284 -1102,-116"
     style="fill:none;stroke:#b38f63;stroke-width:40.63999939;stroke-linecap:round" /><path
     id="line27"
     d="m 12675.768,11290.284 1103,109"
     style="fill:none;stroke:#b38f63;stroke-width:40.63999939;stroke-linecap:round" /><path
     id="line29"
     d="m 13829.768,11515.284 -1102,-109"
     style="fill:none;stroke:#b38f63;stroke-width:40.63999939;stroke-linecap:round" /><path
     style="fill:#ceab72"
     inkscape:connector-curvature="0"
     id="path31"
     d="m 11695.767,12989.284 c 211,0 2089,-45 3249,-372 -647,26 -2044,-115 -2954,-32 -179,19 -731,384 -295,404 z"
     class="fil4" /><path
     style="fill:#ceab72"
     inkscape:connector-curvature="0"
     id="path33"
     d="m 17437.767,11636.284 c -160,96 -519,282 -519,282 -423,96 -839,199 -1141,26 -301,-179 -525,90 -654,211 -128,128 -564,218 -1102,70 -545,-51 -1692,-109 -1814,-58 -122,45 192,-410 487,-410 295,0 1653,90 1807,58 147,-32 269,-64 167,-160 -109,-96 365,-83 429,-51 423,58 1833,90 2339,32 z"
     class="fil4" /><path
     style="fill:#ceab72"
     inkscape:connector-curvature="0"
     id="path35"
     d="m 18161.767,11092.284 c -147,147 -237,160 -391,269 -333,19 -634,26 -910,32 -269,6 -1160,-70 -1794,-340 -641,-269 -980,-103 -1045,-45 -64,51 -487,26 -686,-51 -199,-77 282,-493 410,-461 128,32 641,-173 1064,109 423,282 750,417 1096,417 346,0 1192,26 1467,38 269,19 423,96 788,32 z"
     class="fil4" /><path
     style="fill:#ceab72"
     inkscape:connector-curvature="0"
     id="path37"
     d="m 18494.767,10650.284 c -83,-128 -513,-186 -878,-173 -352,13 -923,359 -1801,-38 -295,-199 -1410,-621.9999 -1762,-359 -141,-159.9999 -90,-621.9999 -45,-646.9999 51,-26 359,-70 788,-13 423,70 756,58 1045,211 282,154 609,595.9999 955,576.9999 352,-26 750,-154 1077,-64 327,83 763,211 763,211 -70,167 -141,295 -141,295 z"
     class="fil4" /><path
     style="fill:#ceab72"
     inkscape:connector-curvature="0"
     id="path39"
     d="m 18609.767,9394.2841 c 70,167 103,314 109,352 -288,-26 -500,-276 -897,-263 -404,19 -718,-90 -955,-173 -244,-77 -641,-38 -993,-237 -237,-135 -352,-263 -923,-301 -577,-45 -1089,64 -1089,64 64,-224 -32,-602 167,-583 199,13 1294,-109 1942,301 308,224 282,269 545,346 263,70 654,199 833,224 186,19 647,6 1262,269 z"
     class="fil4" /><path
     style="fill:#ceab72"
     inkscape:connector-curvature="0"
     id="path41"
     d="m 18020.767,8657.2841 c 135,103 211,244 327,372 -423,19 -558,-45 -1045,-320 -237,-115 -333,-135 -577,-179 -237,-38 -378,-58 -615,-224 -231,-167 -929,-468 -1724,-417 -788,58 -750,-26 -750,-26 0,-346 19,-628 19,-628 718,0 1641,154 1929,288 288,135 769,564 974,654 218,90 570,231 743,308 96,32 519,301 718,173 z"
     class="fil4" /><path
     id="line43"
     d="m 13842.768,7683.2842 1166,153"
     style="fill:none;stroke:#b38f63;stroke-width:40.63999939;stroke-linecap:round" /><path
     id="line45"
     d="m 14194.768,7663.2842 1166,148"
     style="fill:none;stroke:#b38f63;stroke-width:40.63999939;stroke-linecap:round" /><path
     id="line47"
     d="m 14809.768,7676.2842 1173,154"
     style="fill:none;stroke:#b38f63;stroke-width:40.63999939;stroke-linecap:round" /><path
     id="line49"
     d="m 15380.768,7702.2842 1166,154"
     style="fill:none;stroke:#b38f63;stroke-width:40.63999939;stroke-linecap:round" /><path
     id="line51"
     d="m 15764.768,7670.2842 731,102"
     style="fill:none;stroke:#b38f63;stroke-width:40.63999939;stroke-linecap:round" /><path
     id="line53"
     d="m 13688.768,7753.2842 1173,154"
     style="fill:none;stroke:#b38f63;stroke-width:40.63999939;stroke-linecap:round" /><path
     id="line55"
     d="m 13842.768,7875.2842 1166,154"
     style="fill:none;stroke:#b38f63;stroke-width:40.63999939;stroke-linecap:round" /><path
     id="line57"
     d="m 15521.768,10746.284 -1103,-109"
     style="fill:none;stroke:#b38f63;stroke-width:40.63999939;stroke-linecap:round" /><path
     id="line59"
     d="m 14784.768,10553.284 -1096,-109"
     style="fill:none;stroke:#b38f63;stroke-width:40.63999939;stroke-linecap:round" /><path
     id="line61"
     d="m 15553.768,10553.284 -1103,-109"
     style="fill:none;stroke:#b38f63;stroke-width:40.63999939;stroke-linecap:round" /><path
     id="line63"
     d="m 15393.768,10425.284 -1103,-109"
     style="fill:none;stroke:#b38f63;stroke-width:40.63999939;stroke-linecap:round" /><path
     id="line65"
     d="m 15341.768,10220.284 -1102,-109"
     style="fill:none;stroke:#b38f63;stroke-width:40.63999939;stroke-linecap:round" /><path
     id="line67"
     d="m 14271.768,8035.2842 1166,154"
     style="fill:none;stroke:#b38f63;stroke-width:40.63999939;stroke-linecap:round" /><path
     id="line69"
     d="m 16027.768,9502.2842 -1096,-108"
     style="fill:none;stroke:#b38f63;stroke-width:40.63999939;stroke-linecap:round" /><path
     id="line71"
     d="m 15617.768,9547.2842 -1102,-109"
     style="fill:none;stroke:#b38f63;stroke-width:40.63999939;stroke-linecap:round" /><path
     id="line73"
     d="m 14739.768,9374.2842 -1102,-109"
     style="fill:none;stroke:#b38f63;stroke-width:40.63999939;stroke-linecap:round" /><path
     id="line75"
     d="m 15213.768,9323.2842 -1102,-109"
     style="fill:none;stroke:#b38f63;stroke-width:40.63999939;stroke-linecap:round" /><path
     id="line77"
     d="m 14675.768,9169.2842 -1102,-115"
     style="fill:none;stroke:#b38f63;stroke-width:40.63999939;stroke-linecap:round" /><path
     id="line79"
     d="m 14797.768,8195.2842 1166,154"
     style="fill:none;stroke:#b38f63;stroke-width:40.63999939;stroke-linecap:round" /><path
     id="line81"
     d="m 15521.768,8407.2842 1172,141"
     style="fill:none;stroke:#b38f63;stroke-width:40.63999939;stroke-linecap:round" /><path
     id="line83"
     d="m 16219.768,8426.2842 1173,147"
     style="fill:none;stroke:#b38f63;stroke-width:40.63999939;stroke-linecap:round" /><path
     id="line85"
     d="m 16572.768,8400.2842 1166,148"
     style="fill:none;stroke:#b38f63;stroke-width:40.63999939;stroke-linecap:round" /><path
     id="line87"
     d="m 17020.768,8375.2842 731,89"
     style="fill:none;stroke:#b38f63;stroke-width:40.63999939;stroke-linecap:round" /><path
     id="line89"
     d="m 3621.7671,8381.2842 589,45"
     style="fill:none;stroke:#b38f63;stroke-width:40.63999939;stroke-linecap:round" /><path
     style="fill:#f9eab7;stroke:#373435;stroke-width:2.53999996"
     inkscape:connector-curvature="0"
     id="path91"
     d="m 4146.7672,1287.2841 c 0,0 301,6479 205,6863 -109,-90 -77,231 301,192 231,-26 9381.9998,1748.9999 9381.9998,1748.9999 103,-730.9999 0,-4017.9999 103,-4498.9999 -705,327 -1666,-1435 -103,-1589 32,-545 32,-897 32,-897 -4113.9998,-833 -8804.9998,-2262 -9919.9998,-1820 z"
     class="fil5 str0" /><path
     class="fil6"
     d="m 11195.851,6404.9226 c 0,961 -1595.999,1282 -1595.999,-314 128,-1378 1595.999,-641 1595.999,314 z"
     id="path3593"
     inkscape:connector-curvature="0"
     style="fill:url(#radialGradient3196);fill-opacity:1" /><path
     style="fill:url(#radialGradient3193)"
     inkscape:connector-curvature="0"
     id="path115"
     d="m 7107.7672,3959.2841 c -6,519 -1250,750 -1237,-115 115,-743 1243,-397 1237,115 z"
     class="fil6" /><path
     style="fill:url(#radialGradient3190)"
     inkscape:connector-curvature="0"
     id="path133"
     d="m 7094.7672,7125.2841 c 0,314 -756,455 -750,-70 70,-455 756,-244 750,70 z"
     class="fil6" /><path
     style="fill:#efda9d"
     inkscape:connector-curvature="0"
     id="path147"
     d="m 4274.7672,5299.2841 c 0,622 45,2884 45,2884 0,0 147,211 2589,551 -2474,-564 -2467,-590 -2634,-3435 z"
     class="fil24" /><path
     style="fill:#efda9d"
     inkscape:connector-curvature="0"
     id="path149"
     d="m 4415.7672,1159.2841 c 1852,352 4454,609 4960,731 506,128 442,327 -410,295 -865,-38 -3371,-718 -4140,-590 -763,128 -455,2435 -455,3204 0,769 -628,-3640 45,-3640 z"
     class="fil24" /><path
     style="fill:#bd403e;stroke:#373435;stroke-width:2.53999996"
     inkscape:connector-curvature="0"
     id="path151"
     d="m 13746.767,10092.284 c -506,-95.9999 -9156.9998,-1684.9999 -9310.9998,-1716.9999 -167,-32 -192,64 -192,-288 0,-352 -160,-6094 -224,-6575 -64,-481 320,-577 731,-769 525,-244 3416,-916 5203,-699 351.9998,32 409.9998,154 1018.9998,570 609,417 3762,2653 3063,2557 -827,-128 -8484.9998,-1532 -9599.9998,-1852 -167,32 -192,0 -192,320 0,320 96,1852 192,6575 2044,378 9259.9998,1621 9605.9998,1845.9999 6,-63.9999 6,-153.9999 26,-76.9999 19,57.9999 13,198.9999 -32,185.9999 -45,-6 -122,-26 -288,-77 z"
     class="fil25 str0" /><path
     style="fill:#bea46c"
     inkscape:connector-curvature="0"
     id="path153"
     d="m 11400.767,13206.284 c 64,-32 1653,-263 1275,442 -13,256 429,493 481,660 -19,384 173,551 -115,660 -795,64 -2102,199 -2089,122 19,-83 244,-1807 449,-1884 z"
     class="fil26" /><path
     style="fill:#b49860"
     inkscape:connector-curvature="0"
     id="path155"
     d="m 11253.767,13174.284 c 288,13 628,-83 513,0 -211,429 -782,1967 -782,1967 l -602,13 c 346,-910 718,-1775 872,-1980 z"
     class="fil27" /><path
     id="line157"
     d="m 13605.768,12168.284 -1103,-109"
     style="fill:none;stroke:#b38f63;stroke-width:40.63999939;stroke-linecap:round" /><path
     id="line159"
     d="m 13316.768,12566.284 -1102,-109"
     style="fill:none;stroke:#b38f63;stroke-width:40.63999939;stroke-linecap:round" /><path
     style="fill:#c8a568"
     inkscape:connector-curvature="0"
     id="path161"
     d="m 13925.767,10297.284 c 58,96 109,154 -77,250 -192,96 -211,115 -211,115 154,237 141,244 26,288 -109,51 -878,538 -878,538 224,256 224,256 224,256 -538,461 -910,705 -1192,1352 -263,26 -404,0 -404,0 461,-820 884,-2115 2512,-2800 z"
     class="fil28" /><path
     style="fill:#e8ce8d;stroke:#373435;stroke-width:2.53999996"
     inkscape:connector-curvature="0"
     id="path163"
     d="m 839.7672,13726.284 c -769,993 -1224,1192 -211,1596 2230,609 8017,1858 8972,1826 218,-314 385,-795 385,-795 -256,-256 -224,-801 345.9998,-801 673,-1724 846,-2467 2538,-3967 -442,-1941.9999 -10816.9998,1724 -12027.9998,2140 z"
     class="fil29 str0" /><path
     style="fill:#f9eab7;stroke:#f8f2e9;stroke-width:5.07999992"
     inkscape:connector-curvature="0"
     id="path165"
     d="m 762.7672,13700.284 c -705,1038 -1224,1141 -128,1467 2230,609 7882,1852 8837,1820 218,-314 384,-795 384,-795 -256,-256 -224,-801 345.9998,-801 673,-1717 904,-2371 2595,-3871 -423,-1301 -9977.9998,1480 -12034.9998,2179 z"
     class="fil5 str2" /><path
     style="fill:#efda9d"
     inkscape:connector-curvature="0"
     id="path167"
     d="m 788.7672,13758.284 c 109,77 115,109 141,109 19,0 -1038,1147 -634,1192 -186,-19 -51,0 -167,-103 -90,-115 -51,-205 38,-391 83,-179 622,-807 622,-807 z"
     class="fil24" /><path
     style="fill:#efda9d"
     inkscape:connector-curvature="0"
     id="path169"
     d="m 1012.7672,13706.284 c 493,256 7011,1955 8792,2019 0,160 -449,192 -590,179 -141,-19 -141,-19 -141,-19 0,0 -7664,-1519 -8267,-2044 -160,-186 51,-211 205,-135 z"
     class="fil24" /><path
     style="fill:#e8ce8d;stroke:#373435;stroke-width:2.53999996"
     inkscape:connector-curvature="0"
     id="path171"
     d="m 1249.7672,12335.284 c -916,872 -1198,1083 -167,1493 2217,666 7837,2025 8792,2012 230.9998,-308 403.9998,-782 403.9998,-782 -250,-269 -205,-807 372,-788 596,-1429 1403,-2544 2973,-3435 -827,-1825.9999 -11149.9998,1115 -12373.9998,1500 z"
     class="fil29 str0" /><path
     style="fill:#efda9d"
     inkscape:connector-curvature="0"
     id="path173"
     d="m 1057.7672,12649.284 c -96,122 -199,205 -263,269 -327,359 -58,583 -186,564 -26,-6 -340,-96 -199,-340 19,-51 263,-397 449,-590 l 199,96 z"
     class="fil24" /><path
     style="fill:#f9eab7;stroke:#f8f2e9;stroke-width:5.07999992"
     inkscape:connector-curvature="0"
     id="path175"
     d="m 1128.7672,12175.284 c -763,1064 -1147,1147 -167,1461 2217,660 7831,2051 8786,2044 237,-314 403.9998,-788 403.9998,-788 -122,-128 -313.9998,-750 429,-731 647,-1538 1250,-2294 2903,-3377 -288,-628 -11130.9998,1006 -12354.9998,1391 z"
     class="fil5 str2" /><path
     style="fill:#efda9d"
     inkscape:connector-curvature="0"
     id="path177"
     d="m 1083.7672,12168.284 c 538,160 8869,1948 8869,1948 95.9998,-288 -545,-1884 1082.9998,-1724 64,224 -32,481 -256,481 -256,0 -769,615 -461,923 128,384 -269,974 -396.9998,974 -1435,-32 -8106,-1519 -9125,-1993 192,-256 288,-609 288,-609 z"
     class="fil24" /><path
     style="fill:#edd28c;stroke:#373435;stroke-width:2.53999996"
     inkscape:connector-curvature="0"
     id="path179"
     d="m 2390.7672,11790.284 c -6,0 -1493,224 -1493,218 -77,115 -64,141 -109,231 -83,167 -64,301 224,404 449,160 7075,1807 9015.9998,2012 224,-256 397,-570 333,-731 -64,-160 -416.9998,-320 -288,-577 128,-256 224,-666 1121,-641 602,-763 1403,-1685 2762,-2358 26,-160 173,-256 -83,-128 l -11483.9998,1570 z"
     class="fil30 str0" /><path
     id="line181"
     d="m 3922.7671,8721.2842 -1102,-109"
     style="fill:none;stroke:#b38f63;stroke-width:40.63999939;stroke-linecap:round" /><path
     id="line183"
     d="m 3967.7671,8830.2842 -1096,-109"
     style="fill:none;stroke:#b38f63;stroke-width:40.63999939;stroke-linecap:round" /><path
     style="fill:#f9eab7;stroke:#f8f2e9;stroke-width:5.07999992"
     inkscape:connector-curvature="0"
     id="path185"
     d="m 13874.767,10252.284 c -256,128 -1737,961 -2724,2301 -513,-32 -1479.9998,333 -1159.9998,948 204.9998,365 287.9998,391 313.9998,442 58,128 -351.9998,525 -351.9998,525 -2967,-545 -8344,-1743 -8863,-1993 -128,-58 -404,-103 -186,-500 429,-1211 1660,-3363.9999 3352,-3613.9999 1102,167 9490.9998,1704.9999 9605.9998,1780.9999 186,19 250,32 13,109 z"
     class="fil5 str2" /><path
     style="fill:#e8ca88"
     inkscape:connector-curvature="0"
     id="path187"
     d="m 5376.7672,9182.2841 c -141,301 256,641 596,211 186,-250 -314,-609 -596,-211 z"
     class="fil0" /><path
     style="fill:#f6e19b"
     inkscape:connector-curvature="0"
     id="path189"
     d="m 5357.7672,9195.2841 c -141,301 250,647 590,218 90,-167 -237,-455 -590,-218 z"
     class="fil31" /><path
     style="fill:#e8ca88"
     inkscape:connector-curvature="0"
     id="path191"
     d="m 7465.7672,10714.284 c 506,-954.9999 2371,-699 1564,641 -731,731 -1961,602 -1564,-641 z"
     class="fil0" /><path
     style="fill:#f6e19b"
     inkscape:connector-curvature="0"
     id="path193"
     d="m 7491.7672,10746.284 c 276,-269 1288,-800.9999 1717,141 -32,154 -115,436 -276,551 26,-352 -782,-961 -1538,-263 13,-429 96,-429 96,-429 z"
     class="fil31" /><path
     style="fill:#f6e19b"
     inkscape:connector-curvature="0"
     id="path195"
     d="m 7536.7672,11592.284 c 109,-103 660,-211 833,160 179,-45 372,-147 449,-218 -51,-244 -570,-884 -1416,-231 6,103 77,237 135,288 z"
     class="fil31" /><path
     style="fill:#f6e19b"
     inkscape:connector-curvature="0"
     id="path197"
     d="m 7639.7672,11694.284 c 103,-45 442,-167 615,90 -173,45 -474,26 -615,-90 z"
     class="fil31" /><path
     id="line199"
     d="m 18635.768,9836.2842 -1102,-109"
     style="fill:none;stroke:#b38f63;stroke-width:40.63999939;stroke-linecap:round" /><path
     id="line201"
     d="m 18392.768,9900.2842 -1096,-109"
     style="fill:none;stroke:#b38f63;stroke-width:40.63999939;stroke-linecap:round" /><path
     id="line203"
     d="m 18154.768,9708.2842 -1102,-109"
     style="fill:none;stroke:#b38f63;stroke-width:40.63999939;stroke-linecap:round" /><path
     id="line205"
     d="m 17898.768,9618.2842 -1102,-116"
     style="fill:none;stroke:#b38f63;stroke-width:40.63999939;stroke-linecap:round" /><path
     id="line207"
     d="m 17193.768,9470.2842 -1096,-109"
     style="fill:none;stroke:#b38f63;stroke-width:40.63999939;stroke-linecap:round" /><path
     id="line209"
     d="m 16796.768,9361.2842 -1102,-115"
     style="fill:none;stroke:#b38f63;stroke-width:40.63999939;stroke-linecap:round" /><path
     id="line211"
     d="m 16399.768,9451.2842 -1103,-109"
     style="fill:none;stroke:#b38f63;stroke-width:40.63999939;stroke-linecap:round" /><path
     id="line213"
     d="m 15847.768,8522.2842 1173,154"
     style="fill:none;stroke:#b38f63;stroke-width:40.63999939;stroke-linecap:round" /><path
     id="line215"
     d="m 16258.768,8650.2842 1166,154"
     style="fill:none;stroke:#b38f63;stroke-width:40.63999939;stroke-linecap:round" /><path
     id="line217"
     d="m 18507.768,10521.284 -1102,-109"
     style="fill:none;stroke:#b38f63;stroke-width:40.63999939;stroke-linecap:round" /><path
     id="line219"
     d="m 18411.768,10425.284 -1102,-109"
     style="fill:none;stroke:#b38f63;stroke-width:40.63999939;stroke-linecap:round" /><path
     id="line221"
     d="m 17738.768,10239.284 -1102,-115"
     style="fill:none;stroke:#b38f63;stroke-width:40.63999939;stroke-linecap:round" /><path
     id="line223"
     d="m 18071.768,10605.284 -1102,-116"
     style="fill:none;stroke:#b38f63;stroke-width:40.63999939;stroke-linecap:round" /><path
     id="line225"
     d="m 17385.768,10650.284 -1102,-109"
     style="fill:none;stroke:#b38f63;stroke-width:40.63999939;stroke-linecap:round" /><path
     id="line227"
     d="m 16873.768,10701.284 -1096,-109"
     style="fill:none;stroke:#b38f63;stroke-width:40.63999939;stroke-linecap:round" /><path
     id="line229"
     d="m 16226.768,10714.284 -1103,-109"
     style="fill:none;stroke:#b38f63;stroke-width:40.63999939;stroke-linecap:round" /><path
     id="line231"
     d="m 15854.768,10380.284 -1102,-109"
     style="fill:none;stroke:#b38f63;stroke-width:40.63999939;stroke-linecap:round" /><path
     id="line233"
     d="m 15950.768,10874.284 -1102,-109"
     style="fill:none;stroke:#b38f63;stroke-width:40.63999939;stroke-linecap:round" /><path
     id="line235"
     d="m 16450.768,11034.284 -1102,-109"
     style="fill:none;stroke:#b38f63;stroke-width:40.63999939;stroke-linecap:round" /><path
     id="line237"
     d="m 16892.768,11181.284 -1102,-115"
     style="fill:none;stroke:#b38f63;stroke-width:40.63999939;stroke-linecap:round" /><path
     id="line239"
     d="m 17802.768,11162.284 -1102,-109"
     style="fill:none;stroke:#b38f63;stroke-width:40.63999939;stroke-linecap:round" /><path
     id="line241"
     d="m 17706.768,11367.284 -1102,-109"
     style="fill:none;stroke:#b38f63;stroke-width:40.63999939;stroke-linecap:round" /><path
     id="line243"
     d="m 17642.768,11451.284 -1102,-116"
     style="fill:none;stroke:#b38f63;stroke-width:40.63999939;stroke-linecap:round" /><path
     id="line245"
     d="m 17385.768,11560.284 -1102,-109"
     style="fill:none;stroke:#b38f63;stroke-width:40.63999939;stroke-linecap:round" /><path
     id="line247"
     d="m 14181.768,12437.284 -1102,-108"
     style="fill:none;stroke:#b38f63;stroke-width:40.63999939;stroke-linecap:round" /><path
     id="line249"
     d="m 14771.768,12566.284 -1102,-109"
     style="fill:none;stroke:#b38f63;stroke-width:40.63999939;stroke-linecap:round" /><path
     id="line251"
     d="m 13637.768,12809.284 -1103,-109"
     style="fill:none;stroke:#b38f63;stroke-width:40.63999939;stroke-linecap:round" /><path
     id="line253"
     d="m 13508.768,12886.284 -1102,-109"
     style="fill:none;stroke:#b38f63;stroke-width:40.63999939;stroke-linecap:round" /><path
     id="line255"
     d="m 13169.768,12918.284 -1096,-109"
     style="fill:none;stroke:#b38f63;stroke-width:40.63999939;stroke-linecap:round" /><path
     id="line257"
     d="m 14431.768,12072.284 -1096,-109"
     style="fill:none;stroke:#b38f63;stroke-width:40.63999939;stroke-linecap:round" /><path
     id="line259"
     d="m 15136.768,12200.284 -1102,-109"
     style="fill:none;stroke:#b38f63;stroke-width:40.63999939;stroke-linecap:round" /><path
     id="line261"
     d="m 16046.768,12213.284 -1102,-109"
     style="fill:none;stroke:#b38f63;stroke-width:40.63999939;stroke-linecap:round" /><path
     id="line263"
     d="m 13508.768,12694.284 -1102,-109"
     style="fill:none;stroke:#b38f63;stroke-width:40.63999939;stroke-linecap:round" /><path
     id="line265"
     d="m 13874.768,12566.284 -1102,-109"
     style="fill:none;stroke:#b38f63;stroke-width:40.63999939;stroke-linecap:round" /><path
     id="line267"
     d="m 13893.768,12329.284 -1102,-109"
     style="fill:none;stroke:#b38f63;stroke-width:40.63999939;stroke-linecap:round" /><path
     id="line269"
     d="m 14002.768,12136.284 -1102,-109"
     style="fill:none;stroke:#b38f63;stroke-width:40.63999939;stroke-linecap:round" /><path
     id="line271"
     d="m 16347.768,12155.284 -1095,-115"
     style="fill:none;stroke:#b38f63;stroke-width:40.63999939;stroke-linecap:round" /><path
     style="fill:none;stroke:#373435;stroke-width:2.53999996"
     inkscape:connector-curvature="0"
     id="path273"
     d="m 4306.7672,8362.2841 c -1717,224 -2929,2261.9999 -3454,3729.9999"
     class="fil3 str0" /><path
     style="fill:none;stroke:#373435;stroke-width:2.53999996"
     inkscape:connector-curvature="0"
     id="path275"
     d="m 51.7672,14892.284 c -13,-77 -26,-160 51,-276 83,-115 628,-865 660,-916"
     class="fil3 str0" /><path
     style="fill:none;stroke:#373435;stroke-width:2.53999996"
     inkscape:connector-curvature="0"
     id="path277"
     d="m 13957.767,10342.284 c 26,-96 51,-115 58,-147 13,-26 13,-38 -83,-51"
     class="fil3 str0" /><path
     style="fill:none;stroke:#f8f1e0;stroke-width:27.94000053;stroke-linecap:round"
     inkscape:connector-curvature="0"
     id="path279"
     d="m 14002.767,5638.2841 c -641,70 -1371,-1327 -167,-1602"
     class="fil3 str3" /><path
     style="fill:#e8ca88"
     inkscape:connector-curvature="0"
     id="path281"
     d="m 3396.7672,10944.284 c 288,-532 1333,-391 878,359 -410,404 -1096,333 -878,-359 z"
     class="fil0" /><path
     style="fill:#f6e19b"
     inkscape:connector-curvature="0"
     id="path283"
     d="m 3396.7672,10976.284 c 154,-154 647,-506 980,58 -13,83 -58,250 -154,314 13,-192 -436,-538 -859,-147 -19,-83 32,-224 32,-224 z"
     class="fil31" /><path
     style="fill:#f6e19b"
     inkscape:connector-curvature="0"
     id="path285"
     d="m 3441.7672,11438.284 c 58,-58 365,-122 468,90 96,-26 205,-90 250,-128 -32,-141 -320,-487 -788,-122 0,58 38,135 70,160 z"
     class="fil31" /><path
     style="fill:#bea46c"
     inkscape:connector-curvature="0"
     id="path287"
     d="m 18436.767,12809.284 c 83,-141 211,-417 250,-551 51,-154 26,-974 45,-1961 0,32 -122,423 -295,654 45,410 301,666 0,1858 z"
     class="fil26" /><path
     style="fill:#b99a68"
     inkscape:connector-curvature="0"
     id="path289"
     d="m 17898.767,11419.284 c 83,-70 269,-237 314,-295 109,141 250,474 179,833 -77,327 -282,1192 -282,1192 -282,256 -551,417 -551,417 141,-211 980,-1852 340,-2147 z"
     class="fil32" /><path
     style="fill:#b99a68"
     inkscape:connector-curvature="0"
     id="path291"
     d="m 18571.767,10720.284 c 38,-70 135,-256 135,-256 26,26 13,6 13,6 0,199 13,500 13,500 -83,-83 -160,-250 -160,-250 z"
     class="fil32" /><path
     style="fill:#b99a68"
     inkscape:connector-curvature="0"
     id="path293"
     d="m 17027.767,11995.284 c 122,-64 429,-237 429,-237 128,244 237,891 -103,1948 -173,115 -410,211 -410,211 83,-179 551,-1916 83,-1922 z"
     class="fil32" /><path
     style="fill:#b99a68"
     inkscape:connector-curvature="0"
     id="path295"
     d="m 14707.767,13027.284 c -500,0 -647,-128 -647,-128 545,-96 968,-218 1045,-244 147,-45 199,-122 820,461 167,160 199,1128 179,1147 -461,147 -743,282 -756,244 -6,-32 570,-1089 205,-1320 -186,-154 -410,-218 -846,-160 z"
     class="fil32" /><path
     style="fill:#efda9d"
     inkscape:connector-curvature="0"
     id="path297"
     d="m 4306.7672,8394.2841 c 269,45 2442,423 2442,423 -833,-83 -1942,-295 -2499,-295 -666,-211 -2839,2069.9999 -3166,3517.9999 -103,384 698,590 763,647 -564,-147 -1006,-256 -1006,-436 0,-167 199,-545 263,-692 237,-558 538,-1083 1019,-1755.9999 417,-449 1173,-1314 2185,-1410 z"
     class="fil24" /><path
     style="fill:#a13937"
     inkscape:connector-curvature="0"
     id="path299"
     d="m 4255.7672,1050.2841 c 301,-224 1083,-461 1467,-558 910,-231 3050,-615 4178,-397 409.9998,6 -545,13 -980,45 263,-19 -1634,179 -2115,269 -1019,256 -1897,436 -2358,628 -237,96 -493,218 -192,13 z"
     class="fil33" /><path
     style="fill:none;stroke:#373435;stroke-width:2.53999996"
     inkscape:connector-curvature="0"
     id="path301"
     d="m 833.7672,12559.284 c -186,276 -622,660 -397,846"
     class="fil3 str0" /></g>
</svg>